<svg xmlns="http://www.w3.org/2000/svg" viewBox="0 0 32 32" width="32" height="32">
  <defs>
    <linearGradient id="hotelGradient" x1="0%" y1="0%" x2="100%" y2="100%">
      <stop offset="0%" style="stop-color:#667eea;stop-opacity:1" />
      <stop offset="100%" style="stop-color:#764ba2;stop-opacity:1" />
    </linearGradient>
  </defs>
  
  <!-- Building base -->
  <rect x="4" y="12" width="24" height="16" fill="url(#hotelGradient)" rx="2"/>
  
  <!-- Building details -->
  <rect x="6" y="14" width="3" height="3" fill="white" opacity="0.8"/>
  <rect x="11" y="14" width="3" height="3" fill="white" opacity="0.8"/>
  <rect x="16" y="14" width="3" height="3" fill="white" opacity="0.8"/>
  <rect x="21" y="14" width="3" height="3" fill="white" opacity="0.8"/>
  
  <rect x="6" y="19" width="3" height="3" fill="white" opacity="0.8"/>
  <rect x="11" y="19" width="3" height="3" fill="white" opacity="0.8"/>
  <rect x="16" y="19" width="3" height="3" fill="white" opacity="0.8"/>
  <rect x="21" y="19" width="3" height="3" fill="white" opacity="0.8"/>
  
  <rect x="6" y="24" width="3" height="3" fill="white" opacity="0.8"/>
  <rect x="21" y="24" width="3" height="3" fill="white" opacity="0.8"/>
  
  <!-- Door -->
  <rect x="13" y="22" width="6" height="6" fill="white" opacity="0.9" rx="1"/>
  <circle cx="17" cy="25" r="0.5" fill="#667eea"/>
  
  <!-- Roof -->
  <polygon points="2,12 16,4 30,12" fill="#764ba2"/>
  
  <!-- Flag -->
  <rect x="14" y="4" width="1" height="8" fill="#764ba2"/>
  <polygon points="15,4 15,7 19,5.5" fill="#ff6b6b"/>
</svg>